# xmcd
#
# Track frame offsets:
#	150
#	12202
#	25183
#	38839
#	51883
#	62889
#	77072
#	89810
#	101990
#	115035
#	129407
#	141329
#	155710
#	172021
#	185504
#	200113
#	214540
#	227867
#	241354
#	254841
#	267401
#	278566
#
# Disc length: 3852 seconds
#
# Revision: 1
# Processed by: cddbd v1.5.2PL0 Copyright (c) Steve Scherf et al.
# Submitted via: VUPlayer 2.49
#
DISCID=4e0f0a16
DTITLE=Nat King Cole - Here's Nat King Cole
DYEAR=2012
DGENRE=Oldies
TTITLE0=Walkin' My Baby Back Home
TTITLE1=Somewhere Along the Way
TTITLE2==Get Your Kicks On=Route 66
TTITLE3=I Love You for Sentimental Reasons
TTITLE4=Straighten Up and Fly Right
TTITLE5=Sweet Lorraine
TTITLE6=Night Lights
TTITLE7=Love is A Many Splendored Thing
TTITLE8=Too Yong Too Go Steady
TTITLE9=Teach Me Tonight
TTITLE10=Answer Me My Love
TTITLE11=Because You're Mine
TTITLE12=There Will Never Be Another You
TTITLE13=Always You
TTITLE14=Can't I
TTITLE15=Faith Can Move Mountains
TTITLE16=Make Her Mine
TTITLE17=Tenderly
TTITLE18=Dreams Can Tell A Lie
TTITLE19=Let's Fall in Love
TTITLE20=Open Up the Doghouse =Two Cats Are Comin' in=
TTITLE21=To the Ends of the Earth
EXTD=
EXTT0=
EXTT1=
EXTT2=
EXTT3=
EXTT4=
EXTT5=
EXTT6=
EXTT7=
EXTT8=
EXTT9=
EXTT10=
EXTT11=
EXTT12=
EXTT13=
EXTT14=
EXTT15=
EXTT16=
EXTT17=
EXTT18=
EXTT19=
EXTT20=
EXTT21=
PLAYORDER=
